<?xml version="1.0" encoding="UTF-8" standalone="no"?>
<!DOCTYPE svg PUBLIC "-//W3C//DTD SVG 1.1//EN"
 "http://www.w3.org/Graphics/SVG/1.1/DTD/svg11.dtd">
<!-- Generated by graphviz version 2.38.0 (20140413.2041)
 -->
<!-- Title: G Pages: 1 -->
<svg width="300pt" height="260pt"
 viewBox="0.00 0.00 300.14 260.00" xmlns="http://www.w3.org/2000/svg" xmlns:xlink="http://www.w3.org/1999/xlink">
<g id="graph0" class="graph" transform="scale(1 1) rotate(0) translate(4 256)">
<title>G</title>
<polygon fill="white" stroke="none" points="-4,4 -4,-256 296.142,-256 296.142,4 -4,4"/>
<!-- main -->
<g id="node1" class="node"><title>main</title>
<ellipse fill="none" stroke="black" cx="154.595" cy="-234" rx="28.6953" ry="18"/>
<text text-anchor="middle" x="154.595" y="-230.3" font-family="Times,serif" font-size="14.00">main</text>
</g>
<!-- parse -->
<g id="node2" class="node"><title>parse</title>
<ellipse fill="none" stroke="black" cx="111.595" cy="-162" rx="29.4969" ry="18"/>
<text text-anchor="middle" x="111.595" y="-158.3" font-family="Times,serif" font-size="14.00">parse</text>
</g>
<!-- main&#45;&gt;parse -->
<g id="edge1" class="edge"><title>main&#45;&gt;parse</title>
<path fill="none" stroke="black" d="M144.622,-216.765C139.358,-208.195 132.784,-197.494 126.891,-187.9"/>
<polygon fill="black" stroke="black" points="129.731,-185.836 121.514,-179.147 123.766,-189.5 129.731,-185.836"/>
</g>
<!-- init -->
<g id="node4" class="node"><title>init</title>
<ellipse fill="none" stroke="black" cx="54.5952" cy="-90" rx="27" ry="18"/>
<text text-anchor="middle" x="54.5952" y="-86.3" font-family="Times,serif" font-size="14.00">init</text>
</g>
<!-- main&#45;&gt;init -->
<g id="edge3" class="edge"><title>main&#45;&gt;init</title>
<path fill="none" stroke="black" d="M131.018,-223.614C112.532,-215.024 87.6565,-200.516 73.5952,-180 61.1423,-161.831 56.6178,-137.056 55.0796,-118.259"/>
<polygon fill="black" stroke="black" points="58.5718,-118.022 54.4911,-108.244 51.5838,-118.432 58.5718,-118.022"/>
</g>
<!-- cleanup -->
<g id="node5" class="node"><title>cleanup</title>
<ellipse fill="none" stroke="black" cx="197.595" cy="-162" rx="38.1938" ry="18"/>
<text text-anchor="middle" x="197.595" y="-158.3" font-family="Times,serif" font-size="14.00">cleanup</text>
</g>
<!-- main&#45;&gt;cleanup -->
<g id="edge4" class="edge"><title>main&#45;&gt;cleanup</title>
<path fill="none" stroke="black" d="M164.568,-216.765C169.757,-208.317 176.218,-197.799 182.046,-188.312"/>
<polygon fill="black" stroke="black" points="185.126,-189.986 187.377,-179.633 179.161,-186.322 185.126,-189.986"/>
</g>
<!-- printf -->
<g id="node7" class="node"><title>printf</title>
<ellipse fill="none" stroke="black" cx="261.595" cy="-18" rx="30.5947" ry="18"/>
<text text-anchor="middle" x="261.595" y="-14.3" font-family="Times,serif" font-size="14.00">printf</text>
</g>
<!-- main&#45;&gt;printf -->
<g id="edge8" class="edge"><title>main&#45;&gt;printf</title>
<path fill="none" stroke="black" d="M179.701,-225.341C200.746,-217.515 229.678,-203.176 244.595,-180 270.813,-139.267 269.434,-80.4074 265.734,-46.2901"/>
<polygon fill="black" stroke="black" points="269.18,-45.6338 264.483,-36.1368 262.232,-46.4898 269.18,-45.6338"/>
</g>
<!-- execute -->
<g id="node3" class="node"><title>execute</title>
<ellipse fill="none" stroke="black" cx="152.595" cy="-90" rx="37.8943" ry="18"/>
<text text-anchor="middle" x="152.595" y="-86.3" font-family="Times,serif" font-size="14.00">execute</text>
</g>
<!-- parse&#45;&gt;execute -->
<g id="edge2" class="edge"><title>parse&#45;&gt;execute</title>
<path fill="none" stroke="black" d="M121.104,-144.765C126.052,-136.317 132.213,-125.799 137.769,-116.312"/>
<polygon fill="black" stroke="black" points="140.819,-118.031 142.853,-107.633 134.779,-114.493 140.819,-118.031"/>
</g>
<!-- make_string -->
<g id="node6" class="node"><title>make_string</title>
<ellipse fill="none" stroke="black" cx="54.5952" cy="-18" rx="54.6905" ry="18"/>
<text text-anchor="middle" x="54.5952" y="-14.3" font-family="Times,serif" font-size="14.00">make_string</text>
</g>
<!-- execute&#45;&gt;make_string -->
<g id="edge5" class="edge"><title>execute&#45;&gt;make_string</title>
<path fill="none" stroke="black" d="M132.289,-74.496C118.571,-64.6973 100.22,-51.5893 84.7976,-40.5732"/>
<polygon fill="black" stroke="black" points="86.7504,-37.6669 76.5787,-34.7026 82.6817,-43.3631 86.7504,-37.6669"/>
</g>
<!-- execute&#45;&gt;printf -->
<g id="edge6" class="edge"><title>execute&#45;&gt;printf</title>
<path fill="none" stroke="black" d="M174.13,-75.1703C190.979,-64.3501 214.56,-49.2061 232.992,-37.3688"/>
<polygon fill="black" stroke="black" points="235.052,-40.2056 241.575,-31.8569 231.27,-34.3156 235.052,-40.2056"/>
</g>
<!-- compare -->
<g id="node8" class="node"><title>compare</title>
<ellipse fill="none" stroke="black" cx="168.595" cy="-18" rx="41.6928" ry="18"/>
<text text-anchor="middle" x="168.595" y="-14.3" font-family="Times,serif" font-size="14.00">compare</text>
</g>
<!-- execute&#45;&gt;compare -->
<g id="edge9" class="edge"><title>execute&#45;&gt;compare</title>
<path fill="none" stroke="black" d="M156.468,-72.055C158.25,-64.2609 160.407,-54.8219 162.406,-46.0789"/>
<polygon fill="black" stroke="black" points="165.83,-46.8038 164.647,-36.2753 159.006,-45.244 165.83,-46.8038"/>
</g>
<!-- init&#45;&gt;make_string -->
<g id="edge7" class="edge"><title>init&#45;&gt;make_string</title>
<path fill="none" stroke="black" d="M54.5952,-71.6966C54.5952,-63.9827 54.5952,-54.7125 54.5952,-46.1124"/>
<polygon fill="black" stroke="black" points="58.0953,-46.1043 54.5952,-36.1043 51.0953,-46.1044 58.0953,-46.1043"/>
</g>
</g>
</svg>
